HIERARCHY
ROOT Hips
{
	OFFSET 0.000000 83.214638 0.000000
	CHANNELS 6 Xposition Yposition Zposition Xrotation Yrotation Zrotation
	JOINT Pelvis
	{
		OFFSET 0.000000 0.000000 0.000000
		CHANNELS 3 Xrotation Yrotation Zrotation
		JOINT LeftUpLeg
		{
			OFFSET 8.479700 -4.795502 -0.379100
			CHANNELS 3 Xrotation Yrotation Zrotation
			JOINT LeftLeg
			{
				OFFSET 0.024144 -32.555107 0.112900
				CHANNELS 3 Xrotation Yrotation Zrotation
				JOINT LeftFoot
				{
					OFFSET -0.024144 -32.638630 -3.012600
					CHANNELS 3 Xrotation Yrotation Zrotation
					JOINT LeftToeBase
					{
						OFFSET 0.970200 -13.225400 11.864200
						CHANNELS 3 Xrotation Yrotation Zrotation
						End Site
						{
							OFFSET 0.000000 12.319262 0.000000
						}
					}
					JOINT LFootTongue
					{
						OFFSET 1.142400 -1.059800 6.665200
						CHANNELS 3 Xrotation Yrotation Zrotation
						End Site
						{
							OFFSET 0.000000 12.319262 0.000000
						}
					}
				}
				JOINT LeftPantLeg
				{
					OFFSET 0.918482 -16.533964 -2.284700
					CHANNELS 3 Xrotation Yrotation Zrotation
					End Site
					{
						OFFSET 0.350399 24.744368 0.000000
					}
				}
			}
		}
		JOINT RightUpLeg
		{
			OFFSET -8.479700 -4.795502 -0.379100
			CHANNELS 3 Xrotation Yrotation Zrotation
			JOINT RightLeg
			{
				OFFSET -0.023144 -32.555092 0.112900
				CHANNELS 3 Xrotation Yrotation Zrotation
				JOINT RightFoot
				{
					OFFSET 0.023144 -32.638641 -3.012700
					CHANNELS 3 Xrotation Yrotation Zrotation
					JOINT RightToeBase
					{
						OFFSET -0.970200 -13.225400 11.864200
						CHANNELS 3 Xrotation Yrotation Zrotation
						End Site
						{
							OFFSET 0.000000 12.319244 0.000000
						}
					}
					JOINT RFootTongue
					{
						OFFSET -1.142200 -1.059800 6.665200
						CHANNELS 3 Xrotation Yrotation Zrotation
						End Site
						{
							OFFSET 0.000000 12.319243 0.000000
						}
					}
				}
				JOINT RightPantLeg
				{
					OFFSET -0.919482 -16.533978 -2.284800
					CHANNELS 3 Xrotation Yrotation Zrotation
					End Site
					{
						OFFSET -0.350400 24.744419 0.000000
					}
				}
			}
		}
	}
	JOINT Spine
	{
		OFFSET 0.000000 7.722000 1.166200
		CHANNELS 3 Xrotation Yrotation Zrotation
		JOINT Spine1
		{
			OFFSET 0.000000 12.024101 0.248800
			CHANNELS 3 Xrotation Yrotation Zrotation
			JOINT Spine2
			{
				OFFSET 0.000000 11.502998 -0.491200
				CHANNELS 3 Xrotation Yrotation Zrotation
				JOINT Neck
				{
					OFFSET 0.000000 18.430702 -3.123100
					CHANNELS 3 Xrotation Yrotation Zrotation
					JOINT Head
					{
						OFFSET 0.000000 9.051102 1.034000
						CHANNELS 3 Xrotation Yrotation Zrotation
						JOINT HairB
						{
							OFFSET 0.208400 24.786102 24.822300
							CHANNELS 3 Xrotation Yrotation Zrotation
							End Site
							{
								OFFSET 0.000000 32.263779 0.000000
							}
						}
						JOINT HairA
						{
							OFFSET -7.081100 24.428299 23.196600
							CHANNELS 3 Xrotation Yrotation Zrotation
							End Site
							{
								OFFSET 0.000000 32.263779 0.000000
							}
						}
						JOINT Hat
						{
							OFFSET 16.728800 15.048294 -15.439601
							CHANNELS 3 Xrotation Yrotation Zrotation
							End Site
							{
								OFFSET 0.000000 32.263779 0.000000
							}
						}
					}
				}
				JOINT LeftShoulder
				{
					OFFSET 6.197800 13.665199 -4.064700
					CHANNELS 3 Xrotation Yrotation Zrotation
					JOINT LeftArm
					{
						OFFSET 7.778100 -0.187103 -1.709300
						CHANNELS 3 Xrotation Yrotation Zrotation
						JOINT LeftForeArm
						{
							OFFSET 22.049376 0.000000 0.000000
							CHANNELS 3 Xrotation Yrotation Zrotation
							JOINT LeftHand
							{
								OFFSET 23.009392 0.000000 0.000000
								CHANNELS 3 Xrotation Yrotation Zrotation
								JOINT LeftHandThumb1
								{
									OFFSET 3.507191 -2.063065 3.133727
									CHANNELS 3 Xrotation Yrotation Zrotation
									JOINT LeftHandThumb2
									{
										OFFSET 3.101337 -1.790558 1.790558
										CHANNELS 3 Xrotation Yrotation Zrotation
										JOINT LeftHandThumb3
										{
											OFFSET 3.058640 -1.765907 1.765906
											CHANNELS 3 Xrotation Yrotation Zrotation
											End Site
											{
												OFFSET -0.415260 3.926476 -0.049563
											}
										}
									}
								}
								JOINT LeftHandIndex1
								{
									OFFSET 11.334419 -0.901459 3.706815
									CHANNELS 3 Xrotation Yrotation Zrotation
									JOINT LeftHandIndex2
									{
										OFFSET 3.283112 0.000000 0.000000
										CHANNELS 3 Xrotation Yrotation Zrotation
										JOINT LeftHandIndex3
										{
											OFFSET 3.323853 0.000000 0.000000
											CHANNELS 3 Xrotation Yrotation Zrotation
											End Site
											{
												OFFSET -1.135597 3.097809 0.402452
											}
										}
									}
								}
								JOINT LeftHandMiddle1
								{
									OFFSET 11.335861 0.000000 0.000000
									CHANNELS 3 Xrotation Yrotation Zrotation
									JOINT LeftHandMiddle2
									{
										OFFSET 3.410492 0.000000 0.000000
										CHANNELS 3 Xrotation Yrotation Zrotation
										JOINT LeftHandMiddle3
										{
											OFFSET 3.312172 0.000000 0.000000
											CHANNELS 3 Xrotation Yrotation Zrotation
											End Site
											{
												OFFSET -1.150200 3.080154 0.400270
											}
										}
									}
								}
								JOINT LeftHandRing1
								{
									OFFSET 11.514786 -0.013176 -3.003090
									CHANNELS 3 Xrotation Yrotation Zrotation
									JOINT LeftHandRing2
									{
										OFFSET 3.053307 0.000000 0.000000
										CHANNELS 3 Xrotation Yrotation Zrotation
										JOINT LeftHandRing3
										{
											OFFSET 3.295807 0.000000 0.000000
											CHANNELS 3 Xrotation Yrotation Zrotation
											End Site
											{
												OFFSET -1.281006 3.013344 0.375733
											}
										}
									}
								}
								JOINT LeftHandPinky1
								{
									OFFSET 10.518692 -0.960396 -5.730441
									CHANNELS 3 Xrotation Yrotation Zrotation
									JOINT LeftHandPinky2
									{
										OFFSET 2.861649 0.000000 0.000000
										CHANNELS 3 Xrotation Yrotation Zrotation
										JOINT LeftHandPinky3
										{
											OFFSET 2.863380 0.000000 0.000000
											CHANNELS 3 Xrotation Yrotation Zrotation
											End Site
											{
												OFFSET -0.843597 2.711159 0.369971
											}
										}
									}
								}
							}
							JOINT LSleeve
							{
								OFFSET 6.676277 -0.344902 -1.011730
								CHANNELS 3 Xrotation Yrotation Zrotation
								End Site
								{
									OFFSET 0.000000 14.885353 0.000000
								}
							}
						}
					}
				}
				JOINT RightShoulder
				{
					OFFSET -6.197800 13.665199 -4.064700
					CHANNELS 3 Xrotation Yrotation Zrotation
					JOINT RightArm
					{
						OFFSET -7.778100 -0.187103 -1.709300
						CHANNELS 3 Xrotation Yrotation Zrotation
						JOINT RightForeArm
						{
							OFFSET -22.049376 0.000000 0.000000
							CHANNELS 3 Xrotation Yrotation Zrotation
							JOINT RightHand
							{
								OFFSET -23.009392 0.000000 0.000000
								CHANNELS 3 Xrotation Yrotation Zrotation
								JOINT RightHandThumb1
								{
									OFFSET -3.507191 -2.063065 3.133727
									CHANNELS 3 Xrotation Yrotation Zrotation
									JOINT RightHandThumb2
									{
										OFFSET -3.101337 -1.790558 1.790558
										CHANNELS 3 Xrotation Yrotation Zrotation
										JOINT RightHandThumb3
										{
											OFFSET -3.058640 -1.765907 1.765906
											CHANNELS 3 Xrotation Yrotation Zrotation
											End Site
											{
												OFFSET 0.415260 3.926476 -0.049563
											}
										}
									}
								}
								JOINT RightHandIndex1
								{
									OFFSET -11.334419 -0.901459 3.706815
									CHANNELS 3 Xrotation Yrotation Zrotation
									JOINT RightHandIndex2
									{
										OFFSET -3.283112 0.000000 0.000000
										CHANNELS 3 Xrotation Yrotation Zrotation
										JOINT RightHandIndex3
										{
											OFFSET -3.323853 0.000000 0.000000
											CHANNELS 3 Xrotation Yrotation Zrotation
											End Site
											{
												OFFSET 1.135597 3.097809 0.402452
											}
										}
									}
								}
								JOINT RightHandMiddle1
								{
									OFFSET -11.335861 0.000000 0.000000
									CHANNELS 3 Xrotation Yrotation Zrotation
									JOINT RightHandMiddle2
									{
										OFFSET -3.410492 0.000000 0.000000
										CHANNELS 3 Xrotation Yrotation Zrotation
										JOINT RightHandMiddle3
										{
											OFFSET -3.312172 0.000000 0.000000
											CHANNELS 3 Xrotation Yrotation Zrotation
											End Site
											{
												OFFSET 1.150200 3.080154 0.400270
											}
										}
									}
								}
								JOINT RightHandRing1
								{
									OFFSET -11.514786 -0.013176 -3.003090
									CHANNELS 3 Xrotation Yrotation Zrotation
									JOINT RightHandRing2
									{
										OFFSET -3.053307 0.000000 0.000000
										CHANNELS 3 Xrotation Yrotation Zrotation
										JOINT RightHandRing3
										{
											OFFSET -3.295807 0.000000 0.000000
											CHANNELS 3 Xrotation Yrotation Zrotation
											End Site
											{
												OFFSET 1.281006 3.013344 0.375733
											}
										}
									}
								}
								JOINT RightHandPinky1
								{
									OFFSET -10.518692 -0.960396 -5.730441
									CHANNELS 3 Xrotation Yrotation Zrotation
									JOINT RightHandPinky2
									{
										OFFSET -2.861649 0.000000 0.000000
										CHANNELS 3 Xrotation Yrotation Zrotation
										JOINT RightHandPinky3
										{
											OFFSET -2.863380 0.000000 0.000000
											CHANNELS 3 Xrotation Yrotation Zrotation
											End Site
											{
												OFFSET 0.843597 2.711159 0.369971
											}
										}
									}
								}
							}
							JOINT RSleeve
							{
								OFFSET -6.676277 -0.344902 -1.011730
								CHANNELS 3 Xrotation Yrotation Zrotation
								End Site
								{
									OFFSET 0.000000 14.885353 0.000000
								}
							}
						}
					}
				}
				JOINT Backpack
				{
					OFFSET 0.000000 -2.471497 36.677502
					CHANNELS 3 Xrotation Yrotation Zrotation
					End Site
					{
						OFFSET 0.000000 20.427315 0.000000
					}
				}
				JOINT Hood
				{
					OFFSET 0.000000 18.754097 -10.431000
					CHANNELS 3 Xrotation Yrotation Zrotation
					JOINT Hood1
					{
						OFFSET 0.000000 -5.011002 -7.685901
						CHANNELS 3 Xrotation Yrotation Zrotation
						End Site
						{
							OFFSET 0.000000 9.175140 0.000000
						}
					}
				}
				JOINT LHoodieString
				{
					OFFSET 5.250500 16.397697 3.089900
					CHANNELS 3 Xrotation Yrotation Zrotation
					JOINT LHoodieString1
					{
						OFFSET 0.257700 -6.364304 3.694600
						CHANNELS 3 Xrotation Yrotation Zrotation
						JOINT LHoodieString2
						{
							OFFSET 0.000000 -9.643799 2.679100
							CHANNELS 3 Xrotation Yrotation Zrotation
							End Site
							{
								OFFSET 0.000000 10.009018 0.000000
							}
						}
					}
				}
				JOINT RHoodieString
				{
					OFFSET -5.250500 16.397697 3.089900
					CHANNELS 3 Xrotation Yrotation Zrotation
					JOINT RHoodieString1
					{
						OFFSET -0.257700 -6.364304 3.694600
						CHANNELS 3 Xrotation Yrotation Zrotation
						JOINT RHoodieString2
						{
							OFFSET 0.000000 -9.643799 2.679100
							CHANNELS 3 Xrotation Yrotation Zrotation
							End Site
							{
								OFFSET 0.000000 10.009018 0.000000
							}
						}
					}
				}
			}
			JOINT LBackpack_Strap
			{
				OFFSET 15.223200 -7.719803 -6.610900
				CHANNELS 3 Xrotation Yrotation Zrotation
				End Site
				{
					OFFSET 0.000000 16.040596 0.000000
				}
			}
			JOINT RBackpack_Strap
			{
				OFFSET -15.223000 -7.719803 -6.610900
				CHANNELS 3 Xrotation Yrotation Zrotation
				End Site
				{
					OFFSET 0.000000 16.040596 0.000000
				}
			}
		}
	}
	JOINT BoyFacialAnim_Joint
	{
		OFFSET 1.000000 -82.208099 -1.550900
		CHANNELS 3 Xrotation Yrotation Zrotation
		End Site
		{
			OFFSET 0.000000 30.012791 0.000000
		}
	}
}
MOTION
Frames: 4
Frame Time: 0.033333
0.126842 78.130096 0.407859 8.015566 -0.720357 5.503326 -0.000000 0.000000 0.000000 -54.994771 3.207310 6.648410 64.154403 3.686431 -0.125311 5.750362 0.762214 -7.847697 -0.000001 0.000000 -0.000001 -0.000001 0.000000 -0.000000 0.000000 0.000000 0.000000 -28.961949 -5.308581 -9.242412 44.847087 1.600008 -2.244255 -26.702570 -2.314511 5.537717 0.000000 -0.000000 0.000000 0.000000 -0.000000 0.000000 0.000002 0.000001 0.000000 14.924074 2.756532 -0.505417 7.108778 5.318960 -1.145284 -3.978423 5.429120 -0.009648 -16.980894 -10.732827 -0.034809 0.435310 -1.725708 -4.350539 0.000001 -0.000000 -0.000000 0.000001 -0.000000 -0.000000 0.000001 -0.000000 -0.000000 0.653884 -0.667447 -10.067598 0.992398 14.434189 -56.592830 32.176120 -62.212279 -1.181317 -12.685332 -16.527065 3.642954 16.022668 -12.317735 2.281311 35.532420 41.360972 -28.927395 -0.000000 0.000002 0.000002 2.945823 -13.960485 -65.948099 -2.810838 -2.115295 -110.017443 0.000000 -0.000001 -0.000002 -2.455359 4.881061 -71.898997 -2.136692 -2.215528 -87.998149 0.000000 -0.000000 0.000006 -4.836499 10.268350 -83.288201 -1.627047 -2.156098 -73.988291 -0.000002 -0.000001 0.000003 -3.167939 24.959540 -79.169037 -1.844511 -2.147708 -84.995127 0.000001 0.000001 0.000003 0.000001 0.000001 -0.000000 0.452457 19.167649 10.780076 -27.523304 -9.928678 41.244883 15.919212 65.704152 1.392684 -23.326302 4.991780 12.063116 16.022691 12.317725 -2.281292 35.532358 -41.360972 28.927326 -0.000001 0.000003 -0.000000 2.945839 13.960460 65.948127 -2.810817 2.115285 110.017491 0.000000 0.000001 -0.000001 -2.455340 -4.881077 71.899024 -2.136693 2.215545 87.998095 0.000000 -0.000001 0.000001 -4.836461 -10.268354 83.288249 -1.627092 2.156108 73.988284 -0.000000 0.000001 -0.000003 -3.167897 -24.959524 79.169064 -1.844535 2.147714 84.995093 -0.000002 0.000002 0.000001 0.000003 -0.000001 0.000001 -0.000000 0.000001 -0.000000 -0.000000 0.000001 -0.000000 -0.000000 0.000001 -0.000000 -0.000000 0.000001 -0.000000 -0.000000 0.000001 -0.000000 -0.000000 0.000001 -0.000000 -0.000000 0.000001 -0.000000 -0.000000 0.000001 -0.000000 -0.000000 0.000001 -0.000000 -0.000002 0.000000 0.000000 -0.000002 0.000000 0.000000 -0.000000 0.000000 0.000000 
-0.113562 76.811546 -2.537183 7.316128 2.040779 5.293202 0.000000 0.000000 0.000000 -53.728338 3.540123 7.413831 73.450222 3.018123 0.099865 -1.010765 0.526049 -4.119711 -0.000002 0.000001 0.000000 -0.000002 0.000001 -0.000000 0.000000 -0.000000 0.000001 -33.446166 -4.698853 -9.013788 50.751830 -0.287872 -2.578210 -27.328777 -3.665999 5.700288 -0.000000 -0.000000 -0.000000 -0.000000 -0.000000 -0.000000 -0.000000 0.000001 0.000000 15.005681 1.794800 -0.227514 7.133748 3.409262 -0.743494 -3.922485 3.461793 0.016733 -19.699901 -9.281688 0.085109 1.690101 -0.459770 -4.560934 0.000000 0.000000 -0.000000 0.000000 0.000000 -0.000000 0.000000 0.000000 -0.000000 0.653287 -2.652901 -10.925174 -3.341526 14.519647 -55.811699 29.187960 -64.481828 -0.852496 -12.348584 -16.367734 4.254936 16.099376 -12.259073 2.346723 35.576307 41.303899 -28.936626 0.000003 -0.000001 0.000002 2.984107 -13.922822 -65.947143 -2.798087 -2.091339 -110.016760 -0.000001 0.000000 -0.000002 -2.455359 4.881060 -71.898997 -2.136727 -2.210779 -87.998156 0.000001 -0.000001 0.000002 -4.846997 10.230658 -83.290339 -1.627034 -2.156091 -73.988256 0.000001 -0.000002 -0.000001 -3.272408 24.898135 -79.147515 -1.848538 -2.147706 -84.995106 -0.000001 -0.000001 -0.000000 0.000002 -0.000001 0.000001 0.212445 17.037441 13.326900 -22.978520 -15.112459 43.059732 17.374922 61.627677 2.111584 -25.968565 7.777371 9.529468 16.099335 12.259073 -2.346690 35.576352 -41.303916 28.936656 0.000001 -0.000001 0.000002 2.984142 13.922799 65.947163 -2.798082 2.091326 110.016753 -0.000001 0.000002 0.000002 -2.455340 -4.881074 71.899024 -2.136720 2.210782 87.998183 0.000001 0.000001 -0.000000 -4.847016 -10.230656 83.290400 -1.627047 2.156096 73.988256 0.000001 0.000001 0.000002 -3.272431 -24.898126 79.147535 -1.848541 2.147703 84.995093 -0.000000 0.000002 0.000001 -0.000001 -0.000002 -0.000000 0.000000 0.000000 -0.000000 0.000000 0.000000 -0.000000 0.000000 0.000000 -0.000000 0.000000 0.000000 -0.000000 0.000000 0.000000 -0.000001 0.000000 -0.000000 -0.000001 0.000000 0.000000 -0.000000 0.000000 0.000000 -0.000001 0.000000 -0.000000 -0.000001 -0.000001 -0.000000 -0.000000 -0.000001 -0.000000 -0.000000 0.000000 0.000000 0.000000 
-0.245524 76.092041 -6.135756 6.714340 4.866701 4.700446 -0.000000 -0.000000 0.000000 -50.997553 3.232483 8.810650 80.245359 2.661681 0.354765 -6.756964 0.337617 -0.636421 -0.000002 -0.000000 -0.000000 -0.000002 -0.000000 0.000000 0.000000 -0.000002 0.000001 -37.199478 -4.411969 -8.630682 53.447258 -2.151466 -2.801495 -25.521712 -4.918418 6.080399 -0.000000 -0.000000 -0.000000 -0.000000 -0.000000 -0.000000 -0.000002 0.000000 0.000000 14.945547 0.586485 0.113718 6.959166 1.028846 -0.013313 -4.090163 1.000170 0.289057 -22.241119 -6.988680 0.530074 3.061555 1.293527 -4.399915 -0.000000 -0.000000 -0.000000 -0.000000 -0.000000 -0.000000 -0.000000 -0.000000 -0.000000 0.616916 -4.955697 -11.356373 -7.490513 11.078785 -55.786899 25.131392 -67.140780 -0.661410 -13.939496 -18.513508 3.423906 16.310915 -12.094223 2.525706 35.697642 41.146572 -28.959480 -0.000000 -0.000001 -0.000001 3.090157 -13.815872 -65.944910 -2.764268 -2.024351 -110.014854 0.000001 0.000002 0.000000 -2.455360 4.881056 -71.898997 -2.124295 -2.193608 -87.997924 0.000001 -0.000001 -0.000003 -4.875960 10.126731 -83.287183 -1.636626 -2.156100 -73.988304 -0.000001 0.000001 -0.000000 -3.558969 24.723746 -79.086357 -1.864200 -2.147701 -84.995168 0.000000 0.000001 0.000002 0.000001 0.000002 -0.000002 0.189195 13.545648 16.196067 -17.422890 -21.792854 43.900904 20.910875 58.057776 2.736609 -31.626033 8.032097 6.915876 16.310919 12.094227 -2.525696 35.697608 -41.146620 28.959483 0.000001 0.000001 -0.000001 3.090205 13.815818 65.944937 -2.764287 2.024360 110.014888 -0.000000 0.000001 0.000004 -2.455341 -4.881074 71.899024 -2.124320 2.193580 87.997924 0.000002 0.000002 0.000004 -4.875958 -10.126774 83.287245 -1.636623 2.156105 73.988325 -0.000001 0.000000 -0.000001 -3.559004 -24.723765 79.086337 -1.864179 2.147716 84.995202 0.000002 0.000000 -0.000001 0.000000 -0.000003 0.000002 0.000002 -0.000000 0.000000 0.000002 -0.000000 0.000000 0.000002 -0.000000 0.000000 0.000002 -0.000000 0.000000 0.000002 -0.000000 0.000000 0.000002 0.000001 -0.000000 0.000002 -0.000000 0.000000 0.000002 -0.000000 0.000000 0.000002 0.000001 -0.000000 -0.000001 0.000000 0.000000 -0.000001 0.000000 0.000000 -0.000000 -0.000000 0.000000 
-0.179507 76.094788 -10.017882 6.206417 6.717781 3.866558 -0.000000 0.000000 0.000000 -45.756400 2.748559 10.466855 82.844683 2.301662 0.619801 -11.102635 0.414217 1.624672 0.000001 0.000001 -0.000001 0.000001 0.000001 -0.000002 -0.000001 -0.000002 -0.000001 -39.731982 -4.424022 -8.257815 52.590158 -3.320344 -2.897486 -21.469077 -5.524280 6.381117 -0.000000 0.000000 -0.000000 -0.000000 0.000000 -0.000000 0.000003 -0.000000 0.000000 14.711165 -0.762947 0.397198 6.499824 -1.623127 0.651461 -4.553361 -1.711333 0.448593 -23.423135 -4.017846 1.424765 4.323864 3.605315 -4.113210 0.000000 -0.000000 0.000000 0.000000 -0.000000 0.000000 0.000000 -0.000000 0.000000 0.597764 -7.057760 -10.866641 -10.864504 8.120818 -55.782698 20.506658 -69.728971 -0.676809 -17.399200 -21.744268 0.781961 16.631251 -11.836069 2.792223 35.877047 40.908455 -28.979311 -0.000000 0.000001 0.000001 3.247635 -13.648868 -65.943113 -2.716499 -1.920464 -110.012286 -0.000001 0.000001 0.000000 -2.455358 4.881061 -71.898997 -2.106441 -2.166724 -87.997589 0.000001 -0.000001 0.000000 -4.915235 9.967109 -83.282218 -1.654467 -2.156084 -73.988338 -0.000001 0.000002 -0.000000 -3.985191 24.444554 -78.998207 -1.889168 -2.138212 -84.995304 -0.000000 0.000001 0.000002 0.000002 0.000001 -0.000001 0.523373 9.236840 18.243406 -12.065858 -28.488258 44.462790 26.780924 55.920115 3.099648 -34.758389 5.540529 5.714765 16.631254 11.836049 -2.792257 35.877044 -40.908475 28.979355 0.000002 -0.000001 0.000000 3.248504 13.648928 65.936761 -2.716476 1.920417 110.012313 -0.000004 -0.000001 0.000005 -2.455342 -4.881070 71.899024 -2.106427 2.166729 87.997637 0.000003 -0.000001 0.000001 -4.915225 -9.967140 83.282190 -1.654450 2.156107 73.988366 0.000002 0.000002 0.000002 -3.985157 -24.444544 78.998214 -1.889171 2.138227 84.995332 0.000000 0.000001 -0.000001 -0.000002 -0.000001 -0.000001 0.000000 0.000000 -0.000000 0.000000 0.000000 -0.000000 0.000000 0.000000 -0.000000 0.000000 0.000000 -0.000000 0.000000 0.000000 0.000000 0.000000 -0.000000 0.000000 0.000000 0.000000 -0.000000 0.000000 0.000000 0.000000 0.000000 -0.000000 0.000000 0.000000 -0.000000 -0.000000 0.000000 -0.000000 -0.000000 -0.000000 0.000000 0.000000 
